<?xml version="1.0" encoding="utf-8"?>
<!-- Generator: Adobe Illustrator 16.0.0, SVG Export Plug-In . SVG Version: 6.00 Build 0)  -->
<!DOCTYPE svg PUBLIC "-//W3C//DTD SVG 1.1//EN" "http://www.w3.org/Graphics/SVG/1.1/DTD/svg11.dtd">
<svg version="1.1" id="Layer_1" xmlns="http://www.w3.org/2000/svg" xmlns:xlink="http://www.w3.org/1999/xlink" x="0px" y="0px"
	 width="486.419px" height="55.967px" viewBox="0 0 486.419 55.967" enable-background="new 0 0 486.419 55.967"
	 xml:space="preserve">
<polygon id="wpl1" fill="#20B1E7" points="3.697,2.37 16.365,2.37 24.419,13.19 40.919,52.772 "/>
<polygon id="wpl3" fill="#EE3993" points="62.992,2.37 68.982,2.37 71.803,9.036 40.919,52.772 "/>
<polygon id="wpl4" fill="#ff9900" points="68.982,2.37 76.303,2.37 71.803,9.036 "/>
<polygon id="wpl5" fill="#ff9900" points="86.492,2.37 98.636,2.37 80.121,28.876 75.39,17.618 "/>
<polygon id="wpl6" fill="#EE3993" points="59.553,29.952 62.992,34.786 75.39,17.618 80.121,28.876 62.992,53.397 52.969,39.12 "/>
<polygon id="wpl2" fill="#28B680" points="28.892,2.37 62.992,2.37 40.919,52.772 24.419,13.19 40.24,34.042 56.24,11.376 
	47.906,11.376 50.406,14.71 43.906,23.96 "/>
<g>
	<path fill="#333333" d="M110.145,14.619h6.216l4.158,11.466c0.168,0.504,0.343,1.05,0.525,1.638
		c0.182,0.588,0.343,1.148,0.482,1.681c0.168,0.615,0.336,1.232,0.504,1.848c0.168-0.615,0.351-1.232,0.547-1.848
		c0.168-0.532,0.356-1.099,0.566-1.702c0.21-0.602,0.427-1.141,0.651-1.617l5.502-11.718h0.588l5.586,11.718
		c0.224,0.477,0.441,1.016,0.651,1.617c0.21,0.603,0.398,1.169,0.566,1.702c0.195,0.615,0.378,1.232,0.546,1.848
		c0.168-0.615,0.336-1.232,0.504-1.848c0.141-0.532,0.294-1.093,0.463-1.681c0.168-0.588,0.35-1.134,0.546-1.638l4.115-11.466h5.712
		l-10.373,28.812h-0.589l-6.426-13.775c-0.196-0.393-0.393-0.834-0.588-1.324c-0.196-0.489-0.364-0.958-0.504-1.407
		c-0.168-0.504-0.336-1.008-0.504-1.512c-0.196,0.504-0.378,1.008-0.546,1.512c-0.168,0.448-0.344,0.917-0.525,1.407
		c-0.183,0.49-0.371,0.931-0.566,1.324l-6.679,13.775h-0.588L110.145,14.619z"/>
	<path fill="#333333" d="M152.438,14.619h7.896c1.988,0,3.772,0.252,5.355,0.756c1.581,0.504,2.919,1.232,4.011,2.184
		c1.092,0.952,1.932,2.115,2.52,3.486c0.588,1.372,0.883,2.912,0.883,4.62c0,1.737-0.295,3.284-0.883,4.641
		c-0.588,1.358-1.428,2.506-2.52,3.443c-1.092,0.939-2.43,1.66-4.011,2.164c-1.583,0.504-3.367,0.756-5.355,0.756h-2.016v6.51h-5.88
		V14.619z M160.166,31.503c2.408,0,4.158-0.483,5.25-1.449s1.638-2.429,1.638-4.389c0-1.988-0.553-3.465-1.658-4.431
		c-1.106-0.966-2.85-1.449-5.229-1.449h-1.848v11.718H160.166z"/>
	<path fill="#333333" d="M177.681,14.619h5.88v23.394h12.936v5.166h-18.815V14.619z"/>
	<path fill="#333333" d="M213.38,43.557c-2.072,0-4.004-0.371-5.796-1.112c-1.792-0.742-3.354-1.765-4.683-3.066
		c-1.33-1.303-2.381-2.85-3.15-4.641c-0.771-1.792-1.155-3.738-1.155-5.838c0-2.101,0.385-4.046,1.155-5.839
		c0.77-1.792,1.82-3.339,3.15-4.641c1.329-1.302,2.891-2.324,4.683-3.066c1.792-0.741,3.724-1.113,5.796-1.113
		c2.044,0,3.969,0.372,5.775,1.113c1.806,0.742,3.374,1.764,4.704,3.066c1.329,1.302,2.379,2.849,3.149,4.641
		c0.771,1.792,1.155,3.738,1.155,5.839c0,2.1-0.385,4.046-1.155,5.838c-0.771,1.791-1.82,3.338-3.149,4.641
		c-1.33,1.302-2.898,2.324-4.704,3.066C217.349,43.186,215.424,43.557,213.38,43.557z M213.38,38.307
		c1.288,0,2.471-0.237,3.549-0.714s2.002-1.135,2.772-1.975c0.77-0.84,1.365-1.833,1.785-2.981c0.42-1.147,0.63-2.394,0.63-3.737
		c0-1.345-0.21-2.59-0.63-3.739c-0.42-1.148-1.016-2.142-1.785-2.982c-0.771-0.84-1.694-1.498-2.772-1.974
		c-1.078-0.476-2.261-0.714-3.549-0.714c-1.316,0-2.506,0.238-3.569,0.714c-1.064,0.477-1.981,1.134-2.752,1.974
		c-0.77,0.84-1.364,1.834-1.784,2.982c-0.42,1.148-0.63,2.394-0.63,3.739c0,1.344,0.21,2.59,0.63,3.737
		c0.42,1.148,1.015,2.142,1.784,2.981c0.771,0.84,1.688,1.498,2.752,1.975C210.874,38.069,212.063,38.307,213.38,38.307z"/>
	<path fill="#333333" d="M246.98,43.557c-2.072,0-4.004-0.371-5.796-1.112c-1.792-0.742-3.354-1.765-4.683-3.066
		c-1.33-1.303-2.381-2.85-3.15-4.641c-0.771-1.792-1.155-3.738-1.155-5.838c0-2.101,0.385-4.046,1.155-5.839
		c0.77-1.792,1.82-3.339,3.15-4.641c1.329-1.302,2.891-2.324,4.683-3.066c1.792-0.741,3.724-1.113,5.796-1.113
		c2.043,0,3.969,0.372,5.775,1.113c1.805,0.742,3.373,1.764,4.703,3.066c1.33,1.302,2.379,2.849,3.15,4.641
		c0.77,1.792,1.154,3.738,1.154,5.839c0,2.1-0.385,4.046-1.154,5.838c-0.771,1.791-1.82,3.338-3.15,4.641
		c-1.33,1.302-2.898,2.324-4.703,3.066C250.949,43.186,249.023,43.557,246.98,43.557z M246.98,38.307
		c1.287,0,2.471-0.237,3.549-0.714s2.002-1.135,2.771-1.975s1.365-1.833,1.785-2.981c0.42-1.147,0.631-2.394,0.631-3.737
		c0-1.345-0.211-2.59-0.631-3.739c-0.42-1.148-1.016-2.142-1.785-2.982s-1.693-1.498-2.771-1.974
		c-1.078-0.476-2.262-0.714-3.549-0.714c-1.316,0-2.506,0.238-3.57,0.714c-1.064,0.477-1.981,1.134-2.752,1.974
		c-0.77,0.84-1.364,1.834-1.784,2.982c-0.42,1.148-0.63,2.394-0.63,3.739c0,1.344,0.21,2.59,0.63,3.737
		c0.42,1.148,1.015,2.142,1.784,2.981c0.771,0.84,1.688,1.498,2.752,1.975C244.474,38.069,245.664,38.307,246.98,38.307z"/>
	<path fill="#333333" d="M272.263,29.276c0.336-0.756,0.715-1.539,1.135-2.352c0.42-0.812,0.854-1.512,1.301-2.1l7.561-10.206h6.678
		l-9.576,12.936l10.752,15.624h-7.098l-7.602-11.214l-2.771,3.317v7.896h-5.881v-28.56h5.881v9.87c0,0.7-0.043,1.491-0.127,2.373
		C272.431,27.744,272.347,28.549,272.263,29.276z"/>
	<path fill="#333333" d="M308.929,19.785h-8.148v-5.166h22.176v5.166h-8.148v23.394h-5.879V19.785z"/>
	<path fill="#333333" d="M327.283,14.619h5.879v14.617h12.223V14.619h5.879v28.56h-5.879v-8.693h-12.223v8.693h-5.879V14.619z"/>
	<path fill="#333333" d="M357.228,14.619h18.9v5.166h-13.02v9.072h11.465v5.04h-11.465v4.116h13.607v5.166h-19.488V14.619z"/>
	<path fill="#333333" d="M384.361,14.325h0.588l9.996,13.482c0.223,0.309,0.455,0.645,0.693,1.009
		c0.236,0.363,0.467,0.699,0.691,1.008c0.225,0.363,0.449,0.729,0.672,1.092c0.225-0.363,0.449-0.729,0.674-1.092
		c0.391-0.672,0.84-1.345,1.344-2.017l9.828-13.482h0.588l2.309,28.854h-5.838l-0.756-10.122c-0.057-0.476-0.09-1.001-0.105-1.575
		c-0.014-0.573-0.035-1.127-0.062-1.658c-0.027-0.616-0.057-1.232-0.084-1.849c-0.279,0.561-0.574,1.093-0.881,1.597
		c-0.252,0.447-0.533,0.917-0.84,1.406c-0.309,0.49-0.617,0.932-0.926,1.323l-5.166,6.93h-0.504l-5.207-6.888
		c-0.309-0.392-0.623-0.833-0.945-1.323c-0.322-0.489-0.623-0.958-0.902-1.407c-0.309-0.504-0.631-1.035-0.967-1.596
		c0,0.616-0.014,1.232-0.041,1.848c-0.029,0.533-0.057,1.086-0.084,1.66c-0.029,0.574-0.057,1.099-0.084,1.574l-0.756,10.08h-5.545
		L384.361,14.325z"/>
	<path fill="#333333" d="M417.582,14.619h18.9v5.166h-13.02v9.072h11.465v5.04h-11.465v4.116h13.607v5.166h-19.488V14.619z"/>
	<path fill="#333333" d="M450.97,43.557c-1.371,0-2.617-0.153-3.738-0.458c-1.119-0.306-2.127-0.723-3.023-1.25
		s-1.674-1.159-2.33-1.896c-0.658-0.736-1.197-1.522-1.617-2.36l4.787-2.771c0.645,1.035,1.408,1.89,2.289,2.562
		c0.883,0.672,2.051,1.008,3.508,1.008c1.23,0,2.205-0.272,2.918-0.82c0.715-0.546,1.072-1.241,1.072-2.083
		c0-1.01-0.379-1.767-1.135-2.271s-1.807-1.052-3.15-1.641l-1.469-0.632c-1.064-0.448-2.031-0.939-2.898-1.472
		c-0.869-0.533-1.611-1.15-2.227-1.852c-0.615-0.701-1.092-1.5-1.428-2.398c-0.336-0.897-0.504-1.949-0.504-3.155
		c0-1.094,0.203-2.118,0.609-3.071c0.404-0.954,0.979-1.781,1.721-2.482c0.742-0.701,1.645-1.248,2.709-1.641
		s2.254-0.589,3.57-0.589c1.877,0,3.492,0.36,4.852,1.08c1.357,0.72,2.527,1.94,3.508,3.663l-4.578,2.943
		c-0.504-0.896-1.051-1.54-1.639-1.932c-0.588-0.392-1.303-0.588-2.143-0.588c-0.867,0-1.553,0.237-2.057,0.713
		c-0.504,0.475-0.756,1.076-0.756,1.803c0,0.895,0.285,1.573,0.859,2.034s1.492,0.971,2.752,1.53l1.471,0.628
		c1.26,0.532,2.371,1.083,3.338,1.657s1.777,1.216,2.436,1.929c0.658,0.712,1.162,1.523,1.512,2.432
		c0.352,0.909,0.525,1.978,0.525,3.208c0,1.312-0.244,2.48-0.734,3.5s-1.17,1.88-2.037,2.578c-0.869,0.699-1.896,1.225-3.088,1.573
		C453.666,43.382,452.371,43.557,450.97,43.557z"/>
</g>
</svg>
